<?xml version="1.0" encoding="UTF-8" standalone="no"?>
<svg
   version="1.1"
   width="24"
   height="24"
   viewBox="0 0 24 24"
   id="svg4"
   sodipodi:docname="account-group.svg"
   inkscape:version="1.1.2 (1:1.1+202202050950+0a00cf5339)"
   xmlns:inkscape="http://www.inkscape.org/namespaces/inkscape"
   xmlns:sodipodi="http://sodipodi.sourceforge.net/DTD/sodipodi-0.dtd"
   xmlns="http://www.w3.org/2000/svg"
   xmlns:svg="http://www.w3.org/2000/svg">
  <defs
     id="defs8" />
  <sodipodi:namedview
     id="namedview6"
     pagecolor="#000000"
     bordercolor="#000000"
     borderopacity="1.0"
     inkscape:pageshadow="2"
     inkscape:pageopacity="0.0"
     inkscape:pagecheckerboard="0"
     showgrid="false"
     inkscape:zoom="24.666667"
     inkscape:cx="12"
     inkscape:cy="11.97973"
     inkscape:window-width="1920"
     inkscape:window-height="1151"
     inkscape:window-x="0"
     inkscape:window-y="25"
     inkscape:window-maximized="1"
     inkscape:current-layer="svg4" />
  <path
     d="M12,5.5A3.5,3.5 0 0,1 15.5,9A3.5,3.5 0 0,1 12,12.5A3.5,3.5 0 0,1 8.5,9A3.5,3.5 0 0,1 12,5.5M5,8C5.56,8 6.08,8.15 6.53,8.42C6.38,9.85 6.8,11.27 7.66,12.38C7.16,13.34 6.16,14 5,14A3,3 0 0,1 2,11A3,3 0 0,1 5,8M19,8A3,3 0 0,1 22,11A3,3 0 0,1 19,14C17.84,14 16.84,13.34 16.34,12.38C17.2,11.27 17.62,9.85 17.47,8.42C17.92,8.15 18.44,8 19,8M5.5,18.25C5.5,16.18 8.41,14.5 12,14.5C15.59,14.5 18.5,16.18 18.5,18.25V20H5.5V18.25M0,20V18.5C0,17.11 1.89,15.94 4.45,15.6C3.86,16.28 3.5,17.22 3.5,18.25V20H0M24,20H20.5V18.25C20.5,17.22 20.14,16.28 19.55,15.6C22.11,15.94 24,17.11 24,18.5V20Z"
     id="path2" />
  <path
     style="fill:#ffffff;stroke:#ffffff;stroke-width:0.122579;fill-opacity:1;stroke-opacity:1"
     d="M 11.284309,12.403344 C 10.229325,12.171899 9.3213296,11.450127 8.8598588,10.476132 8.6211622,9.9723308 8.5419969,9.6046918 8.5419969,9 c 0,-0.4134719 0.018908,-0.5969071 0.087754,-0.8513514 C 9.052699,6.5855073 10.408245,5.5337838 12,5.5337838 c 1.589753,0 2.947833,1.0536895 3.370249,2.6148648 0.124104,0.4586665 0.124104,1.2440363 0,1.7027028 -0.353206,1.3053856 -1.378819,2.2801196 -2.689166,2.5557596 -0.344003,0.07236 -1.058539,0.07044 -1.396774,-0.0038 z"
     id="path899" />
  <path
     style="fill:#ffffff;fill-opacity:1;stroke:#ffffff;stroke-width:0.122579;stroke-opacity:1"
     d="M 4.2660613,13.88683 C 3.6556398,13.722114 3.0154267,13.299635 2.6544837,12.823345 1.4994131,11.299148 1.9993724,9.1787182 3.7171899,8.3161906 4.4558452,7.9453068 5.4374391,7.9352759 6.2274341,8.2905385 l 0.2477043,0.1113931 0.023463,0.7044396 c 0.039051,1.1724118 0.2963453,2.0133228 0.8988227,2.9376048 l 0.2273931,0.348852 -0.1095024,0.188721 c -0.1558739,0.268639 -0.7187769,0.810601 -1.0288285,0.990556 -0.447255,0.259586 -0.8341429,0.363148 -1.4189189,0.379816 -0.4093295,0.01167 -0.5634243,-8.47e-4 -0.8015063,-0.06509 z"
     id="path2603" />
  <path
     style="fill:#ffffff;fill-opacity:1;stroke:#ffffff;stroke-width:0.122579;stroke-opacity:1"
     d="M 5.521826,18.902027 C 5.5359,17.921333 5.54434,17.817163 5.6293988,17.574324 c 0.290498,-0.829355 1.0675999,-1.608307 2.1341147,-2.139195 0.712109,-0.354472 1.6979835,-0.653685 2.6554055,-0.805916 0.727109,-0.115611 2.543769,-0.105132 3.263513,0.01882 2.469217,0.425255 4.187894,1.498029 4.688169,2.926287 0.08506,0.242839 0.0935,0.347009 0.107573,1.327703 l 0.01527,1.064189 H 12 5.5065539 Z"
     id="path2642" />
  <path
     style="fill:#ffffff;fill-opacity:1;stroke:#ffffff;stroke-width:0.122579;stroke-opacity:1"
     d="M 18.288323,13.883313 C 17.917727,13.786259 17.631767,13.657146 17.32299,13.44746 17.044685,13.258467 16.630206,12.827993 16.48038,12.572334 l -0.105198,-0.179506 0.227394,-0.348852 c 0.610246,-0.936201 0.910938,-1.963228 0.910938,-3.1113579 V 8.4070772 l 0.253378,-0.113966 c 0.787568,-0.3542368 1.780377,-0.346368 2.509626,0.019891 0.746915,0.3751313 1.288119,0.9929817 1.560581,1.7815928 0.100277,0.290243 0.112239,0.381835 0.113828,0.871621 0.0015,0.463616 -0.01274,0.593787 -0.09316,0.851352 -0.325849,1.043557 -1.117546,1.8074 -2.14591,2.070411 -0.406866,0.104059 -1.015992,0.102062 -1.423529,-0.0047 z"
     id="path2681" />
  <path
     style="fill:#ffffff;fill-opacity:1;stroke:#ffffff;stroke-width:0.122579;stroke-opacity:1"
     d="m 20.503814,18.760135 c -0.01598,-1.140002 -0.02264,-1.227446 -0.121542,-1.596036 -0.126452,-0.471266 -0.318138,-0.894154 -0.572997,-1.264122 l -0.189921,-0.275698 0.153161,0.02609 c 2.40569,0.409845 4.010291,1.434913 4.185704,2.673952 0.0221,0.156081 0.04054,0.589358 0.04098,0.962838 L 24,19.966216 h -1.739639 -1.739639 z"
     id="path2720" />
  <path
     style="fill:#ffffff;fill-opacity:1;stroke:#ffffff;stroke-width:0.122579;stroke-opacity:1"
     d="M 8.0305135e-4,19.287162 C 0.00124473,18.913682 0.01968508,18.480405 0.0417816,18.324324 0.17527579,17.381375 1.1579558,16.534159 2.7162162,16.018567 3.1077587,15.889015 3.8628591,15.707261 4.2240847,15.655621 l 0.1497608,-0.02141 -0.1865201,0.270732 C 3.9357509,16.2701 3.7436825,16.694688 3.6177282,17.164098 3.5188262,17.532688 3.5121674,17.620132 3.4961859,18.760134 L 3.479278,19.966216 H 1.739639 0 Z"
     id="path2759" />
</svg>
