<?xml version="1.0" encoding="UTF-8" standalone="no"?>
<svg
   version="1.1"
   width="24"
   height="24"
   viewBox="0 0 24 24"
   id="svg4"
   sodipodi:docname="clock-time-three.svg"
   inkscape:version="1.1.2 (1:1.1+202202050950+0a00cf5339)"
   xmlns:inkscape="http://www.inkscape.org/namespaces/inkscape"
   xmlns:sodipodi="http://sodipodi.sourceforge.net/DTD/sodipodi-0.dtd"
   xmlns="http://www.w3.org/2000/svg"
   xmlns:svg="http://www.w3.org/2000/svg">
  <defs
     id="defs8" />
  <sodipodi:namedview
     id="namedview6"
     pagecolor="#ffffff"
     bordercolor="#666666"
     borderopacity="1.0"
     inkscape:pageshadow="2"
     inkscape:pageopacity="0.0"
     inkscape:pagecheckerboard="0"
     showgrid="false"
     inkscape:zoom="24.666667"
     inkscape:cx="12"
     inkscape:cy="11.97973"
     inkscape:window-width="1920"
     inkscape:window-height="1151"
     inkscape:window-x="0"
     inkscape:window-y="25"
     inkscape:window-maximized="1"
     inkscape:current-layer="svg4" />
  <path
     d="M12 2C6.5 2 2 6.5 2 12C2 17.5 6.5 22 12 22C17.5 22 22 17.5 22 12S17.5 2 12 2M17 13H11V7H12.5V11.5H17V13Z"
     id="path2" />
  <path
     style="fill:#ffffff;stroke:#ffffff;stroke-width:0.122579"
     d="M 11.25,21.952719 C 7.7042457,21.652263 4.617728,19.551496 3.0599918,16.378378 2.5749986,15.390444 2.2877246,14.489277 2.1230379,13.439189 2.0190828,12.776343 2.0186533,11.214275 2.1222464,10.560811 2.2892133,9.5075858 2.5744794,8.6122512 3.0587132,7.6216216 4.2261628,5.2332916 6.3482445,3.3764453 8.8762358,2.5312217 10.575135,1.9632015 12.4268,1.8733703 14.205362,2.2726857 c 2.888282,0.6484652 5.421613,2.66016 6.735925,5.3489359 0.484802,0.9917919 0.770956,1.8904841 0.935874,2.9391894 0.103437,0.657751 0.103437,2.220627 0,2.878378 -0.689251,4.38292 -4.111122,7.794411 -8.458063,8.432406 -0.618247,0.09074 -1.61548,0.128036 -2.169098,0.08112 z m 5.777027,-9.689205 v -0.770271 h -2.25 -2.25 v -2.2499998 -2.25 h -0.77027 -0.770271 v 3.0202708 3.02027 h 3.020271 3.02027 z"
     id="path899" />
</svg>
