<?xml version="1.0" encoding="UTF-8" standalone="no"?>
<svg
   version="1.1"
   width="24"
   height="24"
   viewBox="0 0 24 24"
   id="svg4"
   sodipodi:docname="cog.svg"
   inkscape:version="1.1.2 (1:1.1+202202050950+0a00cf5339)"
   xmlns:inkscape="http://www.inkscape.org/namespaces/inkscape"
   xmlns:sodipodi="http://sodipodi.sourceforge.net/DTD/sodipodi-0.dtd"
   xmlns="http://www.w3.org/2000/svg"
   xmlns:svg="http://www.w3.org/2000/svg">
  <defs
     id="defs8" />
  <sodipodi:namedview
     id="namedview6"
     pagecolor="#ffffff"
     bordercolor="#666666"
     borderopacity="1.0"
     inkscape:pageshadow="2"
     inkscape:pageopacity="0.0"
     inkscape:pagecheckerboard="0"
     showgrid="false"
     inkscape:zoom="24.666667"
     inkscape:cx="12"
     inkscape:cy="11.97973"
     inkscape:window-width="1920"
     inkscape:window-height="1151"
     inkscape:window-x="0"
     inkscape:window-y="25"
     inkscape:window-maximized="1"
     inkscape:current-layer="svg4" />
  <path
     d="M12,15.5A3.5,3.5 0 0,1 8.5,12A3.5,3.5 0 0,1 12,8.5A3.5,3.5 0 0,1 15.5,12A3.5,3.5 0 0,1 12,15.5M19.43,12.97C19.47,12.65 19.5,12.33 19.5,12C19.5,11.67 19.47,11.34 19.43,11L21.54,9.37C21.73,9.22 21.78,8.95 21.66,8.73L19.66,5.27C19.54,5.05 19.27,4.96 19.05,5.05L16.56,6.05C16.04,5.66 15.5,5.32 14.87,5.07L14.5,2.42C14.46,2.18 14.25,2 14,2H10C9.75,2 9.54,2.18 9.5,2.42L9.13,5.07C8.5,5.32 7.96,5.66 7.44,6.05L4.95,5.05C4.73,4.96 4.46,5.05 4.34,5.27L2.34,8.73C2.21,8.95 2.27,9.22 2.46,9.37L4.57,11C4.53,11.34 4.5,11.67 4.5,12C4.5,12.33 4.53,12.65 4.57,12.97L2.46,14.63C2.27,14.78 2.21,15.05 2.34,15.27L4.34,18.73C4.46,18.95 4.73,19.03 4.95,18.95L7.44,17.94C7.96,18.34 8.5,18.68 9.13,18.93L9.5,21.58C9.54,21.82 9.75,22 10,22H14C14.25,22 14.46,21.82 14.5,21.58L14.87,18.93C15.5,18.67 16.04,18.34 16.56,17.94L19.05,18.95C19.27,19.03 19.54,18.95 19.66,18.73L21.66,15.27C21.78,15.05 21.73,14.78 21.54,14.63L19.43,12.97Z"
     id="path2" />
  <path
     style="fill:#ffffff;stroke:#ffffff;stroke-width:0.122579"
     d="M 9.8136924,21.922234 C 9.5539245,21.789775 9.5442499,21.756342 9.3400216,20.285309 L 9.1507451,18.921969 8.6587054,18.676954 C 8.3880835,18.542196 8.0121049,18.321225 7.8231977,18.185906 7.6342901,18.050587 7.4566723,17.939718 7.4284909,17.939531 7.40031,17.939343 6.815807,18.16723 6.1295962,18.445946 5.4433853,18.724662 4.831584,18.952703 4.7700378,18.952703 c -0.2684511,0 -0.2940292,-0.03566 -1.4007036,-1.952922 -1.1074065,-1.918527 -1.1349238,-1.97895 -1.0064111,-2.209884 0.027081,-0.04866 0.532685,-0.469146 1.1235634,-0.934404 l 1.0743243,-0.845922 -0.005,-0.180461 C 4.5374568,12.16698 4.5410044,11.466675 4.56384,11.243786 L 4.5906232,10.982368 3.4950501,10.137253 C 2.892485,9.6724395 2.3795272,9.2483522 2.355144,9.194837 2.2978024,9.0689858 2.2985592,8.8763493 2.3568358,8.7642268 2.3821496,8.7155238 2.858725,7.8859597 3.4158924,6.9207515 4.477093,5.0823817 4.5025415,5.0472973 4.7748072,5.0472973 c 0.064169,0 0.678994,0.2280405 1.3662772,0.5067568 0.6872829,0.2787162 1.2643195,0.5067567 1.2823029,0.5067567 0.017984,0 0.2299674,-0.1322635 0.4710746,-0.2939189 0.2411076,-0.1616554 0.6224797,-0.38331 0.8474943,-0.4925657 L 9.1510735,5.0756795 9.3401858,3.7135154 C 9.5442373,2.2437471 9.5539443,2.2102147 9.8136924,2.0777657 9.9406022,2.013053 10.130916,2.0068828 12,2.0068828 c 1.869084,0 2.059398,0.00617 2.186308,0.070883 0.259748,0.132449 0.269455,0.1659814 0.473506,1.6357497 l 0.189112,1.3621641 0.409031,0.1986467 c 0.224967,0.1092557 0.607637,0.3309103 0.850378,0.4925657 0.242741,0.1616554 0.454764,0.2939189 0.471161,0.2939189 0.0164,0 0.592137,-0.2280405 1.27942,-0.5067567 0.687283,-0.2787163 1.302108,-0.5067568 1.366277,-0.5067568 0.272266,0 0.297714,0.035084 1.358915,1.8734542 0.557167,0.9652082 1.033742,1.7947723 1.059056,1.8434753 0.05826,0.1120958 0.05904,0.3047509 0.0017,0.4305251 -0.02436,0.053468 -0.537285,0.4778927 -1.139829,0.943165 l -1.095535,0.845949 0.02671,0.26067 c 0.02276,0.22215 0.0263,0.926839 0.008,1.583003 l -0.005,0.17889 1.073756,0.846362 c 0.590565,0.465498 1.096169,0.886687 1.123563,0.935974 0.06314,0.113596 0.06639,0.33208 0.0067,0.447008 -0.02531,0.0487 -0.50189,0.878267 -1.059057,1.843476 -1.058182,1.833138 -1.087322,1.873454 -1.354146,1.873454 -0.06155,0 -0.673347,-0.228041 -1.359558,-0.506757 -0.686211,-0.278716 -1.265779,-0.506757 -1.28793,-0.506757 -0.02215,0 -0.218518,0.120108 -0.436373,0.266907 -0.217856,0.146799 -0.598755,0.367825 -0.846443,0.49117 l -0.450342,0.224262 -0.189307,1.36356 c -0.204261,1.47127 -0.213929,1.504686 -0.473701,1.637146 -0.12691,0.06471 -0.317224,0.07088 -2.186308,0.07088 -1.869084,0 -2.0593978,-0.0062 -2.1863076,-0.07088 z m 2.9076116,-6.479698 c 1.307268,-0.26867 2.33852,-1.25542 2.689693,-2.573624 0.107498,-0.403517 0.127127,-1.199614 0.03942,-1.598642 C 15.219633,10.220353 14.53295,9.3367788 13.572384,8.8537545 13.02765,8.5798338 12.721966,8.5137304 12,8.5137304 c -0.739491,0 -1.046019,0.069557 -1.625525,0.3688597 -0.8698024,0.4492354 -1.5296614,1.2722729 -1.7842795,2.2255179 -0.1046132,0.391654 -0.1259323,1.236885 -0.040902,1.621622 0.1314989,0.594991 0.4741261,1.248194 0.8852858,1.687757 0.4926965,0.526732 1.2678777,0.938482 1.9978527,1.061191 0.260997,0.04387 1.00043,0.02314 1.288872,-0.03614 z"
     id="path862" />
</svg>
