<?xml version="1.0" encoding="UTF-8" standalone="no"?>
<svg
   version="1.1"
   width="24"
   height="24"
   viewBox="0 0 24 24"
   id="svg4"
   sodipodi:docname="eye-plus-outline.svg"
   inkscape:version="1.1.2 (1:1.1+202202050950+0a00cf5339)"
   xmlns:inkscape="http://www.inkscape.org/namespaces/inkscape"
   xmlns:sodipodi="http://sodipodi.sourceforge.net/DTD/sodipodi-0.dtd"
   xmlns="http://www.w3.org/2000/svg"
   xmlns:svg="http://www.w3.org/2000/svg">
  <defs
     id="defs8" />
  <sodipodi:namedview
     id="namedview6"
     pagecolor="#ffffff"
     bordercolor="#666666"
     borderopacity="1.0"
     inkscape:pageshadow="2"
     inkscape:pageopacity="0.0"
     inkscape:pagecheckerboard="0"
     showgrid="false"
     inkscape:zoom="24.666667"
     inkscape:cx="12"
     inkscape:cy="11.97973"
     inkscape:window-width="1920"
     inkscape:window-height="1151"
     inkscape:window-x="0"
     inkscape:window-y="25"
     inkscape:window-maximized="1"
     inkscape:current-layer="svg4" />
  <path
     d="M12,4.5C7,4.5 2.73,7.61 1,12C2.73,16.39 7,19.5 12,19.5C12.36,19.5 12.72,19.5 13.08,19.45C13.03,19.13 13,18.82 13,18.5C13,18.14 13.04,17.78 13.1,17.42C12.74,17.46 12.37,17.5 12,17.5C8.24,17.5 4.83,15.36 3.18,12C4.83,8.64 8.24,6.5 12,6.5C15.76,6.5 19.17,8.64 20.82,12C20.7,12.24 20.56,12.45 20.43,12.68C21.09,12.84 21.72,13.11 22.29,13.5C22.56,13 22.8,12.5 23,12C21.27,7.61 17,4.5 12,4.5M12,9A3,3 0 0,0 9,12A3,3 0 0,0 12,15A3,3 0 0,0 15,12A3,3 0 0,0 12,9M18,14.5V17.5H15V19.5H18V22.5H20V19.5H23V17.5H20V14.5H18Z"
     id="path2" />
  <path
     style="fill:#000000;stroke:#ffffff;stroke-width:0.122579;fill-opacity:1"
     d="M 11.209459,19.454654 C 9.4201411,19.284225 8.2047085,18.951081 6.7702703,18.237896 4.8760601,17.296116 3.3327538,15.929637 2.1550084,14.151435 1.8075651,13.626853 1.3161007,12.715556 1.1244588,12.24054 L 1.0252334,11.994594 1.1726898,11.652702 C 1.5483703,10.781653 2.1447388,9.7838749 2.733791,9.0408401 3.8769125,7.5988985 5.1854051,6.5433648 6.8310811,5.7356415 8.102445,5.1116363 9.2406462,4.7724536 10.662162,4.5939837 c 0.54589,-0.068536 2.119477,-0.068093 2.675676,7.531e-4 3.514022,0.4349648 6.533724,2.295201 8.489839,5.2300216 0.360645,0.5410866 0.850247,1.4448636 1.047206,1.9330826 0.114325,0.283385 0.138786,0.190662 -0.284848,1.079746 l -0.302511,0.634884 -0.225817,-0.144453 C 21.74995,13.128589 21.242106,12.899166 20.823527,12.76866 l -0.35155,-0.109608 0.123977,-0.207904 c 0.281648,-0.472311 0.277725,-0.417713 0.05887,-0.819215 C 18.623305,7.9050687 14.506237,5.9174088 10.297297,6.6314728 8.0462222,7.0133771 5.9542869,8.2213598 4.4404176,10.013514 c -0.3187978,0.3774 -0.9040792,1.248347 -1.1336449,1.686957 l -0.1594436,0.304633 0.1959715,0.359515 c 1.5151804,2.779636 4.2482639,4.659833 7.3594024,5.062828 0.722491,0.09359 1.272079,0.113287 1.818872,0.0652 0.275718,-0.02425 0.509136,-0.03626 0.518707,-0.02669 0.0096,0.0096 -0.0047,0.25318 -0.03167,0.541351 -0.03694,0.394387 -0.038,0.633473 -0.0043,0.966863 0.02464,0.243603 0.03527,0.452448 0.02363,0.464101 -0.02489,0.02491 -1.581689,0.03894 -1.818505,0.01638 z"
     id="path862" />
  <path
     style="fill:#000000;stroke:#ffffff;stroke-width:0.122579;fill-opacity:1"
     d="M 11.503921,14.940646 C 10.063614,14.677219 9.0405405,13.455931 9.0405405,12 c 0,-1.346268 0.8300293,-2.4518497 2.1500775,-2.8638587 0.434299,-0.1355517 1.184465,-0.1355517 1.618764,0 1.320048,0.412009 2.150077,1.5175907 2.150077,2.8638587 0,1.334756 -0.836485,2.457493 -2.128378,2.856724 -0.318604,0.09846 -1.008992,0.142114 -1.32716,0.08392 z"
     id="path901" />
  <path
     style="fill:#000000;stroke:#ffffff;stroke-width:0.122579;fill-opacity:1"
     d="m 18,20.97973 v -1.5 H 16.5 15 v -0.972973 -0.972973 h 1.5 1.5 v -1.5 -1.5 h 0.993243 0.993243 v 1.5 1.5 h 1.5 1.5 v 0.972973 0.972973 h -1.5 -1.5 v 1.5 1.5 H 18.993243 18 Z"
     id="path940" />
</svg>
