<?xml version="1.0" encoding="UTF-8" standalone="no"?>
<svg
   version="1.1"
   width="24"
   height="24"
   viewBox="0 0 24 24"
   id="svg4"
   sodipodi:docname="help-box.svg"
   inkscape:version="1.1.2 (1:1.1+202202050950+0a00cf5339)"
   xmlns:inkscape="http://www.inkscape.org/namespaces/inkscape"
   xmlns:sodipodi="http://sodipodi.sourceforge.net/DTD/sodipodi-0.dtd"
   xmlns="http://www.w3.org/2000/svg"
   xmlns:svg="http://www.w3.org/2000/svg">
  <defs
     id="defs8" />
  <sodipodi:namedview
     id="namedview6"
     pagecolor="#ffffff"
     bordercolor="#666666"
     borderopacity="1.0"
     inkscape:pageshadow="2"
     inkscape:pageopacity="0.0"
     inkscape:pagecheckerboard="0"
     showgrid="false"
     inkscape:zoom="24.666667"
     inkscape:cx="12"
     inkscape:cy="11.97973"
     inkscape:window-width="1920"
     inkscape:window-height="1151"
     inkscape:window-x="0"
     inkscape:window-y="25"
     inkscape:window-maximized="1"
     inkscape:current-layer="svg4" />
  <path
     d="M11,18H13V16H11V18M12,6A4,4 0 0,0 8,10H10A2,2 0 0,1 12,8A2,2 0 0,1 14,10C14,12 11,11.75 11,15H13C13,12.75 16,12.5 16,10A4,4 0 0,0 12,6M5,3H19A2,2 0 0,1 21,5V19A2,2 0 0,1 19,21H5A2,2 0 0,1 3,19V5A2,2 0 0,1 5,3Z"
     id="path2" />
  <path
     style="fill:#ffffff;stroke:#ffffff;stroke-width:0.122579"
     d="M 4.4967086,20.905408 C 3.721446,20.70303 3.1341412,20.012812 3.0399344,19.193364 2.9870216,18.733107 2.9870216,5.2668929 3.0399344,4.8066355 3.1341412,3.9871878 3.721446,3.2969701 4.4967086,3.0945922 4.7441005,3.0300119 5.2900476,3.0249443 12,3.0249443 c 6.709952,0 7.255899,0.00507 7.503291,0.069648 0.775263,0.2023779 1.362568,0.8925956 1.456775,1.7120433 0.05291,0.4602574 0.05291,13.9264714 0,14.3867284 -0.09421,0.819448 -0.681512,1.509666 -1.456775,1.712044 -0.247392,0.06458 -0.793339,0.06965 -7.503291,0.06965 -6.7099524,0 -7.2558995,-0.0051 -7.5032914,-0.06965 z M 13.013514,17.006757 V 15.993243 H 12 10.986486 v 1.013514 1.013513 H 12 13.013514 Z m 0.0196,-2.218149 c 0.08439,-0.675426 0.359998,-1.132689 1.087799,-1.804769 1.275489,-1.177836 1.573011,-1.53912 1.778386,-2.159515 0.08248,-0.249147 0.09345,-0.358004 0.08992,-0.8918916 -0.0032,-0.4813662 -0.02169,-0.6729616 -0.08878,-0.9192742 -0.40304,-1.4796377 -1.490163,-2.5535204 -2.956879,-2.9208692 -0.506213,-0.1267844 -1.380895,-0.1267844 -1.887108,0 C 9.349558,6.5197905 8.122198,7.9599357 7.9996354,9.6790541 l -0.02529,0.3547299 h 1.0123159 1.0123156 l 0.048011,-0.3088158 c 0.06865,-0.4416032 0.247525,-0.7902924 0.57104,-1.113182 0.31242,-0.3118167 0.606195,-0.464983 1.065338,-0.555439 0.284994,-0.056147 0.348276,-0.056147 0.63327,0 0.411323,0.081035 0.725051,0.23235 0.99693,0.4808327 0.645176,0.5896536 0.841954,1.4896161 0.481629,2.2027121 -0.142702,0.28241 -0.433117,0.575867 -1.085735,1.097104 -0.89002,0.710848 -1.264717,1.155636 -1.499908,1.780482 -0.117666,0.312608 -0.223065,0.872588 -0.223065,1.18513 v 0.217662 h 1.008843 1.008842 z"
     id="path862" />
</svg>
