<?xml version="1.0" encoding="UTF-8" standalone="no"?>
<svg
   version="1.1"
   width="24"
   height="24"
   viewBox="0 0 24 24"
   id="svg4"
   sodipodi:docname="message-reply.svg"
   inkscape:version="1.1.2 (1:1.1+202202050950+0a00cf5339)"
   xmlns:inkscape="http://www.inkscape.org/namespaces/inkscape"
   xmlns:sodipodi="http://sodipodi.sourceforge.net/DTD/sodipodi-0.dtd"
   xmlns="http://www.w3.org/2000/svg"
   xmlns:svg="http://www.w3.org/2000/svg">
  <defs
     id="defs8" />
  <sodipodi:namedview
     id="namedview6"
     pagecolor="#ffffff"
     bordercolor="#666666"
     borderopacity="1.0"
     inkscape:pageshadow="2"
     inkscape:pageopacity="0.0"
     inkscape:pagecheckerboard="0"
     showgrid="false"
     inkscape:zoom="24.666667"
     inkscape:cx="12"
     inkscape:cy="11.97973"
     inkscape:window-width="1920"
     inkscape:window-height="1151"
     inkscape:window-x="0"
     inkscape:window-y="25"
     inkscape:window-maximized="1"
     inkscape:current-layer="svg4" />
  <path
     d="M22,4C22,2.89 21.1,2 20,2H4A2,2 0 0,0 2,4V16A2,2 0 0,0 4,18H18L22,22V4Z"
     id="path2" />
  <path
     style="fill:#ffffff;stroke:#ffffff;stroke-width:0.122579"
     d="M 19.986643,19.946103 18.020584,17.97973 h -7.11664 c -7.7802891,0 -7.3040874,0.01422 -7.8156728,-0.233428 C 2.7968504,17.60523 2.4056976,17.21605 2.2577338,16.919953 2.0154053,16.435018 2.0280323,16.813899 2.0275082,10.011896 2.026979,3.1432893 2.012507,3.5505613 2.274577,3.0588676 2.542838,2.5555583 3.125059,2.1401917 3.6891892,2.0496586 c 0.3673103,-0.058947 16.2563868,-0.05871 16.6216218,2.481e-4 0.773264,0.1248238 1.461523,0.7826852 1.619064,1.5475562 0.03098,0.1504278 0.04083,2.8825967 0.03339,9.2641811 l -0.01056,9.050833 z"
     id="path862" />
</svg>
