<?xml version="1.0" encoding="UTF-8" standalone="no"?>
<svg
   version="1.1"
   width="24"
   height="24"
   viewBox="0 0 24 24"
   id="svg4"
   sodipodi:docname="shield-check.svg"
   inkscape:version="1.1.2 (1:1.1+202202050950+0a00cf5339)"
   xmlns:inkscape="http://www.inkscape.org/namespaces/inkscape"
   xmlns:sodipodi="http://sodipodi.sourceforge.net/DTD/sodipodi-0.dtd"
   xmlns="http://www.w3.org/2000/svg"
   xmlns:svg="http://www.w3.org/2000/svg">
  <defs
     id="defs8" />
  <sodipodi:namedview
     id="namedview6"
     pagecolor="#ffffff"
     bordercolor="#666666"
     borderopacity="1.0"
     inkscape:pageshadow="2"
     inkscape:pageopacity="0.0"
     inkscape:pagecheckerboard="0"
     showgrid="false"
     inkscape:zoom="24.666667"
     inkscape:cx="12"
     inkscape:cy="11.97973"
     inkscape:window-width="1920"
     inkscape:window-height="1151"
     inkscape:window-x="0"
     inkscape:window-y="25"
     inkscape:window-maximized="1"
     inkscape:current-layer="svg4" />
  <path
     d="M10,17L6,13L7.41,11.59L10,14.17L16.59,7.58L18,9M12,1L3,5V11C3,16.55 6.84,21.74 12,23C17.16,21.74 21,16.55 21,11V5L12,1Z"
     id="path2" />
  <path
     style="fill:#ffffff;stroke:#ffffff;stroke-width:0.122579"
     d="M 11.412162,22.80833 C 9.5998054,22.234795 8.0895665,21.289737 6.6649905,19.837705 4.9492639,18.088911 3.7480451,15.812867 3.2647776,13.395056 3.0407204,12.274086 3.0338009,12.138731 3.0121203,8.4527027 L 2.991971,5.027027 7.4959857,3.0258892 12,1.0247514 l 4.504014,2.0011378 4.504015,2.0011378 -0.02058,3.4256757 c -0.02082,3.4668243 -0.02729,3.6228643 -0.190255,4.5948083 -0.295511,1.762419 -0.959954,3.420199 -1.992864,4.972184 -0.558412,0.839035 -0.84668,1.186567 -1.631421,1.966819 -0.963908,0.958395 -1.800889,1.574887 -2.89254,2.130545 -0.733733,0.373476 -2.037578,0.85361 -2.300641,0.8472 -0.04459,-0.0011 -0.3,-0.07125 -0.567568,-0.155929 z m 2.604653,-9.784604 C 16.207567,10.833059 18,9.0222215 18,8.9996428 18,8.9770642 17.680667,8.6396481 17.29037,8.2498293 L 16.58074,7.5410684 13.286905,10.834717 9.9930705,14.128365 8.7061723,12.841467 7.4192736,11.554569 6.7096369,12.263336 C 6.3193366,12.653158 6,12.990474 6,13.012926 c 0,0.05323 3.9397865,3.993831 3.9930114,3.993831 0.022341,0 1.8330516,-1.792364 4.0238036,-3.983031 z"
     id="path862" />
</svg>
